<svg xmlns="http://www.w3.org/2000/svg" width="1024" height="1024" viewBox="0 0 200 200">
<defs>
  <linearGradient id="r1" x1="0" y1="0" x2="1" y2="1">
    <stop offset="0%" stop-color="#89335C"/>
    <stop offset="100%" stop-color="#D4A0FF"/>
  </linearGradient>
</defs>

<!-- Circle background -->
<circle cx="100" cy="100" r="95" fill="#0f0f1a" stroke="url(#r1)" stroke-width="3"/>

<!-- Trail -->
<path d="M35 145 Q60 120 75 127 Q90 135 100 110 Q110 85 120 97" fill="none" stroke="#D4A0FF" stroke-width="1.8" stroke-dasharray="2.5 5" opacity="0.35"/>

<!-- Trail particles -->
<circle cx="40" cy="142" r="3.5" fill="#D4A0FF" opacity="0.3"/>
<circle cx="62" cy="123" r="4" fill="#D4A0FF" opacity="0.35"/>
<circle cx="80" cy="128" r="4" fill="#F7B5D6" opacity="0.4"/>
<circle cx="95" cy="120" r="4.5" fill="#F7B5D6" opacity="0.5"/>
<circle cx="108" cy="102" r="4.5" fill="#F7B5D6" opacity="0.55"/>

<!-- Cursor -->
<g transform="translate(113, 52)">
  <path d="M8 5 L8 58 L22 47 L34 66 L43 61 L31 43 L46 40 Z" fill="url(#r1)" stroke="#F7B5D6" stroke-width="1.2" stroke-linejoin="round"/>
</g>

<!-- Sparkles -->
<path d="M165 52 L168 42 L171 52 L181 55 L171 58 L168 68 L165 58 L155 55 Z" fill="#F7B5D6" opacity="0.85"/>
<path d="M155 80 L157 74 L159 80 L165 82 L159 84 L157 90 L155 84 L149 82 Z" fill="#D4A0FF" opacity="0.5"/>
<circle cx="173" cy="68" r="2" fill="#D4A0FF" opacity="0.45"/>
</svg>
