<svg xmlns="http://www.w3.org/2000/svg" version="1.1" xmlns:xlink="http://www.w3.org/1999/xlink" width="1000" height="1000"><metadata><rdf:RDF xmlns:rdf="http://www.w3.org/1999/02/22-rdf-syntax-ns#" xmlns:dc="http://purl.org/dc/elements/1.1/"><rdf:Description><dc:creator>RealFaviconGenerator</dc:creator><dc:source>https://realfavicongenerator.net</dc:source></rdf:Description></rdf:RDF></metadata><g clip-path="url(#SvgjsClipPath1029)"><rect width="1000" height="1000" fill="#000000"></rect><g transform="matrix(0.68359375,0,0,0.68359375,150,150)"><svg xmlns="http://www.w3.org/2000/svg" width="1024" height="1024" viewBox="0 0 200 200"><defs>
  <linearGradient id="r1" x1="0" y1="0" x2="1" y2="1">
    <stop offset="0%" stop-color="#89335C"></stop>
    <stop offset="100%" stop-color="#D4A0FF"></stop>
  </linearGradient>
<clipPath id="SvgjsClipPath1029"><rect width="1000" height="1000" x="0" y="0" rx="350" ry="350"></rect></clipPath></defs><circle cx="100" cy="100" r="95" fill="#0f0f1a" stroke="url(#r1)" stroke-width="3"></circle><path d="M35 145 Q60 120 75 127 Q90 135 100 110 Q110 85 120 97" fill="none" stroke="#D4A0FF" stroke-width="1.8" stroke-dasharray="2.5 5" opacity="0.35"></path><circle cx="40" cy="142" r="3.5" fill="#D4A0FF" opacity="0.3"></circle><circle cx="62" cy="123" r="4" fill="#D4A0FF" opacity="0.35"></circle><circle cx="80" cy="128" r="4" fill="#F7B5D6" opacity="0.4"></circle><circle cx="95" cy="120" r="4.5" fill="#F7B5D6" opacity="0.5"></circle><circle cx="108" cy="102" r="4.5" fill="#F7B5D6" opacity="0.55"></circle><g transform="translate(113, 52)">
  <path d="M8 5 L8 58 L22 47 L34 66 L43 61 L31 43 L46 40 Z" fill="url(#r1)" stroke="#F7B5D6" stroke-width="1.2" stroke-linejoin="round"></path>
</g><path d="M165 52 L168 42 L171 52 L181 55 L171 58 L168 68 L165 58 L155 55 Z" fill="#F7B5D6" opacity="0.85"></path><path d="M155 80 L157 74 L159 80 L165 82 L159 84 L157 90 L155 84 L149 82 Z" fill="#D4A0FF" opacity="0.5"></path><circle cx="173" cy="68" r="2" fill="#D4A0FF" opacity="0.45"></circle></svg></g></g></svg>